<svg xmlns="http://www.w3.org/2000/svg" width="1340" viewBox="95 268 1250 160" height="160" preserveAspectRatio="xMidYMid meet" version="1.0"><defs><g/></defs><g fill="#ffffff" fill-opacity="1"><g transform="translate(105.316348, 413.656448)"><g><path d="M 24.332031 -3.042969 L 97.320312 -3.042969 L 97.320312 0 L 94.28125 0 L 94.28125 -16.21875 L 97.320312 -16.21875 L 97.320312 -13.179688 L 21.289062 -13.179688 L 21.289062 -116.582031 L 97.320312 -116.582031 L 97.320312 -113.542969 L 94.28125 -113.542969 L 94.28125 -129.761719 L 97.320312 -129.761719 L 97.320312 -126.71875 L 24.332031 -126.71875 C 19.792969 -126.71875 16.464844 -125.671875 14.347656 -123.570312 C 12.21875 -121.453125 11.152344 -118.109375 11.152344 -113.542969 L 11.152344 -16.21875 C 11.152344 -11.707031 12.21875 -8.382812 14.355469 -6.246094 C 16.492188 -4.109375 19.816406 -3.042969 24.332031 -3.042969 Z M 24.332031 3.042969 C 18.136719 3.042969 13.378906 1.378906 10.054688 -1.945312 C 6.730469 -5.269531 5.070312 -10.027344 5.070312 -16.21875 L 5.070312 -113.542969 C 5.070312 -119.800781 6.734375 -124.582031 10.0625 -127.886719 C 13.367188 -131.164062 18.121094 -132.804688 24.332031 -132.804688 L 100.363281 -132.804688 L 100.363281 -110.5 L 24.332031 -110.5 L 24.332031 -113.542969 L 27.371094 -113.542969 L 27.371094 -16.21875 L 24.332031 -16.21875 L 24.332031 -19.261719 L 100.363281 -19.261719 L 100.363281 3.042969 Z M 24.332031 3.042969 "/></g></g></g><g fill="#ffffff" fill-opacity="1"><g transform="translate(210.745862, 413.656448)"><g><path d="M 11.152344 -113.542969 L 11.152344 0 L 8.109375 0 L 8.109375 -3.042969 L 24.332031 -3.042969 L 24.332031 0 L 21.289062 0 L 21.289062 -116.582031 L 84.144531 -116.582031 L 84.144531 0 L 81.101562 0 L 81.101562 -3.042969 L 97.320312 -3.042969 L 97.320312 0 L 94.28125 0 L 94.28125 -113.542969 C 94.28125 -118.136719 93.230469 -121.480469 91.136719 -123.578125 C 89.039062 -125.671875 85.695312 -126.71875 81.101562 -126.71875 L 24.332031 -126.71875 C 19.792969 -126.71875 16.464844 -125.671875 14.347656 -123.570312 C 12.21875 -121.453125 11.152344 -118.109375 11.152344 -113.542969 Z M 5.070312 -113.542969 C 5.070312 -119.800781 6.734375 -124.582031 10.0625 -127.886719 C 13.367188 -131.164062 18.121094 -132.804688 24.332031 -132.804688 L 81.101562 -132.804688 C 87.375 -132.804688 92.152344 -131.160156 95.4375 -127.878906 C 98.722656 -124.59375 100.363281 -119.816406 100.363281 -113.542969 L 100.363281 3.042969 L 78.058594 3.042969 L 78.058594 -113.542969 L 81.101562 -113.542969 L 81.101562 -110.5 L 24.332031 -110.5 L 24.332031 -113.542969 L 27.371094 -113.542969 L 27.371094 3.042969 L 5.070312 3.042969 Z M 40.550781 -35.480469 L 64.882812 -35.480469 L 64.882812 -32.441406 L 61.839844 -32.441406 L 61.839844 -48.660156 L 64.882812 -48.660156 L 64.882812 -45.621094 L 40.550781 -45.621094 L 40.550781 -48.660156 L 43.59375 -48.660156 L 43.59375 -32.441406 L 40.550781 -32.441406 Z M 37.507812 -29.398438 L 37.507812 -51.703125 L 67.921875 -51.703125 L 67.921875 -29.398438 Z M 37.507812 -29.398438 "/></g></g></g><g fill="#ffffff" fill-opacity="1"><g transform="translate(316.175377, 413.656448)"><g><path d="M 11.152344 -113.542969 L 11.152344 0 L 8.109375 0 L 8.109375 -3.042969 L 24.332031 -3.042969 L 24.332031 0 L 21.289062 0 L 21.289062 -116.582031 L 140.914062 -116.582031 L 140.914062 0 L 137.871094 0 L 137.871094 -3.042969 L 154.09375 -3.042969 L 154.09375 0 L 151.050781 0 L 151.050781 -113.542969 C 151.050781 -118.136719 150.003906 -121.480469 147.90625 -123.578125 C 145.8125 -125.671875 142.464844 -126.71875 137.871094 -126.71875 L 24.332031 -126.71875 C 19.792969 -126.71875 16.464844 -125.671875 14.347656 -123.570312 C 12.21875 -121.453125 11.152344 -118.109375 11.152344 -113.542969 Z M 5.070312 -113.542969 C 5.070312 -119.800781 6.734375 -124.582031 10.0625 -127.886719 C 13.367188 -131.164062 18.121094 -132.804688 24.332031 -132.804688 L 137.871094 -132.804688 C 144.144531 -132.804688 148.925781 -131.160156 152.207031 -127.878906 C 155.492188 -124.59375 157.132812 -119.816406 157.132812 -113.542969 L 157.132812 3.042969 L 134.832031 3.042969 L 134.832031 -113.542969 L 137.871094 -113.542969 L 137.871094 -110.5 L 24.332031 -110.5 L 24.332031 -113.542969 L 27.371094 -113.542969 L 27.371094 3.042969 L 5.070312 3.042969 Z M 72.992188 -3.042969 L 89.210938 -3.042969 L 89.210938 0 L 86.171875 0 L 86.171875 -97.320312 L 89.210938 -97.320312 L 89.210938 -94.28125 L 72.992188 -94.28125 L 72.992188 -97.320312 L 76.03125 -97.320312 L 76.03125 0 L 72.992188 0 Z M 69.949219 3.042969 L 69.949219 -100.363281 L 92.253906 -100.363281 L 92.253906 3.042969 Z M 69.949219 3.042969 "/></g></g></g><g fill="#ffffff" fill-opacity="1"><g transform="translate(478.374636, 413.656448)"><g><path d="M 11.152344 -113.542969 L 11.152344 0 L 8.109375 0 L 8.109375 -3.042969 L 24.332031 -3.042969 L 24.332031 0 L 21.289062 0 L 21.289062 -116.582031 L 84.144531 -116.582031 L 84.144531 0 L 81.101562 0 L 81.101562 -3.042969 L 97.320312 -3.042969 L 97.320312 0 L 94.28125 0 L 94.28125 -113.542969 C 94.28125 -118.136719 93.230469 -121.480469 91.136719 -123.578125 C 89.039062 -125.671875 85.695312 -126.71875 81.101562 -126.71875 L 24.332031 -126.71875 C 19.792969 -126.71875 16.464844 -125.671875 14.347656 -123.570312 C 12.21875 -121.453125 11.152344 -118.109375 11.152344 -113.542969 Z M 5.070312 -113.542969 C 5.070312 -119.800781 6.734375 -124.582031 10.0625 -127.886719 C 13.367188 -131.164062 18.121094 -132.804688 24.332031 -132.804688 L 81.101562 -132.804688 C 87.375 -132.804688 92.152344 -131.160156 95.4375 -127.878906 C 98.722656 -124.59375 100.363281 -119.816406 100.363281 -113.542969 L 100.363281 3.042969 L 78.058594 3.042969 L 78.058594 -113.542969 L 81.101562 -113.542969 L 81.101562 -110.5 L 24.332031 -110.5 L 24.332031 -113.542969 L 27.371094 -113.542969 L 27.371094 3.042969 L 5.070312 3.042969 Z M 40.550781 -35.480469 L 64.882812 -35.480469 L 64.882812 -32.441406 L 61.839844 -32.441406 L 61.839844 -48.660156 L 64.882812 -48.660156 L 64.882812 -45.621094 L 40.550781 -45.621094 L 40.550781 -48.660156 L 43.59375 -48.660156 L 43.59375 -32.441406 L 40.550781 -32.441406 Z M 37.507812 -29.398438 L 37.507812 -51.703125 L 67.921875 -51.703125 L 67.921875 -29.398438 Z M 37.507812 -29.398438 "/></g></g></g><g fill="#ffffff" fill-opacity="1"><g transform="translate(583.80415, 413.656448)"><g><path d="M 24.332031 -94.28125 L 8.109375 -94.28125 L 8.109375 -97.320312 L 11.152344 -97.320312 L 11.152344 0 L 8.109375 0 L 8.109375 -3.042969 L 81.101562 -3.042969 C 85.671875 -3.042969 89.011719 -4.105469 91.128906 -6.238281 C 93.230469 -8.355469 94.28125 -11.683594 94.28125 -16.21875 L 94.28125 -113.542969 C 94.28125 -118.136719 93.230469 -121.480469 91.136719 -123.578125 C 89.039062 -125.671875 85.695312 -126.71875 81.101562 -126.71875 L 8.109375 -126.71875 L 8.109375 -129.761719 L 11.152344 -129.761719 L 11.152344 -113.542969 L 8.109375 -113.542969 L 8.109375 -116.582031 L 84.144531 -116.582031 L 84.144531 -13.179688 L 21.289062 -13.179688 L 21.289062 -97.320312 L 24.332031 -97.320312 Z M 27.371094 -100.363281 L 27.371094 -16.21875 L 24.332031 -16.21875 L 24.332031 -19.261719 L 81.101562 -19.261719 L 81.101562 -16.21875 L 78.058594 -16.21875 L 78.058594 -113.542969 L 81.101562 -113.542969 L 81.101562 -110.5 L 5.070312 -110.5 L 5.070312 -132.804688 L 81.101562 -132.804688 C 87.375 -132.804688 92.152344 -131.160156 95.4375 -127.878906 C 98.722656 -124.59375 100.363281 -119.816406 100.363281 -113.542969 L 100.363281 -16.21875 C 100.363281 -10.011719 98.722656 -5.257812 95.445312 -1.953125 C 92.140625 1.375 87.359375 3.042969 81.101562 3.042969 L 5.070312 3.042969 L 5.070312 -100.363281 Z M 27.371094 -100.363281 "/></g></g></g><g fill="#ffffff" fill-opacity="1"><g transform="translate(689.233664, 413.656448)"><g><path d="M 11.152344 -113.542969 L 11.152344 0 L 8.109375 0 L 8.109375 -3.042969 L 24.332031 -3.042969 L 24.332031 0 L 21.289062 0 L 21.289062 -116.582031 L 84.144531 -116.582031 L 84.144531 0 L 81.101562 0 L 81.101562 -3.042969 L 97.320312 -3.042969 L 97.320312 0 L 94.28125 0 L 94.28125 -113.542969 C 94.28125 -118.136719 93.230469 -121.480469 91.136719 -123.578125 C 89.039062 -125.671875 85.695312 -126.71875 81.101562 -126.71875 L 24.332031 -126.71875 C 19.792969 -126.71875 16.464844 -125.671875 14.347656 -123.570312 C 12.21875 -121.453125 11.152344 -118.109375 11.152344 -113.542969 Z M 5.070312 -113.542969 C 5.070312 -119.800781 6.734375 -124.582031 10.0625 -127.886719 C 13.367188 -131.164062 18.121094 -132.804688 24.332031 -132.804688 L 81.101562 -132.804688 C 87.375 -132.804688 92.152344 -131.160156 95.4375 -127.878906 C 98.722656 -124.59375 100.363281 -119.816406 100.363281 -113.542969 L 100.363281 3.042969 L 78.058594 3.042969 L 78.058594 -113.542969 L 81.101562 -113.542969 L 81.101562 -110.5 L 24.332031 -110.5 L 24.332031 -113.542969 L 27.371094 -113.542969 L 27.371094 3.042969 L 5.070312 3.042969 Z M 40.550781 -35.480469 L 64.882812 -35.480469 L 64.882812 -32.441406 L 61.839844 -32.441406 L 61.839844 -48.660156 L 64.882812 -48.660156 L 64.882812 -45.621094 L 40.550781 -45.621094 L 40.550781 -48.660156 L 43.59375 -48.660156 L 43.59375 -32.441406 L 40.550781 -32.441406 Z M 37.507812 -29.398438 L 37.507812 -51.703125 L 67.921875 -51.703125 L 67.921875 -29.398438 Z M 37.507812 -29.398438 "/></g></g></g><g fill="#ffffff" fill-opacity="1"><g transform="translate(829.594468, 413.656448)"><g><path d="M 24.332031 -3.042969 L 72.992188 -3.042969 L 72.992188 0 L 69.949219 0 L 69.949219 -16.21875 L 72.992188 -16.21875 L 72.992188 -13.179688 L 21.289062 -13.179688 L 21.289062 -129.761719 L 24.332031 -129.761719 L 24.332031 -126.71875 L 8.109375 -126.71875 L 8.109375 -129.761719 L 11.152344 -129.761719 L 11.152344 -16.21875 C 11.152344 -11.707031 12.21875 -8.382812 14.355469 -6.246094 C 16.492188 -4.109375 19.816406 -3.042969 24.332031 -3.042969 Z M 24.332031 3.042969 C 18.136719 3.042969 13.378906 1.378906 10.054688 -1.945312 C 6.730469 -5.269531 5.070312 -10.027344 5.070312 -16.21875 L 5.070312 -132.804688 L 27.371094 -132.804688 L 27.371094 -16.21875 L 24.332031 -16.21875 L 24.332031 -19.261719 L 76.03125 -19.261719 L 76.03125 3.042969 Z M 24.332031 3.042969 "/></g></g></g><g fill="#ffffff" fill-opacity="1"><g transform="translate(910.694096, 413.656448)"><g><path d="M 5.070312 -132.804688 L 5.070312 3.042969 L 27.371094 3.042969 L 27.371094 -132.804688 Z M 11.152344 -126.71875 L 21.289062 -126.71875 L 21.289062 -3.042969 L 11.152344 -3.042969 Z M 11.152344 -126.71875 "/></g></g></g><g fill="#ffffff" fill-opacity="1"><g transform="translate(943.133952, 413.656448)"><g><path d="M 11.152344 -113.542969 L 11.152344 0 L 8.109375 0 L 8.109375 -3.042969 L 24.332031 -3.042969 L 24.332031 0 L 21.289062 0 L 21.289062 -116.582031 L 140.914062 -116.582031 L 140.914062 0 L 137.871094 0 L 137.871094 -3.042969 L 154.09375 -3.042969 L 154.09375 0 L 151.050781 0 L 151.050781 -113.542969 C 151.050781 -118.136719 150.003906 -121.480469 147.90625 -123.578125 C 145.8125 -125.671875 142.464844 -126.71875 137.871094 -126.71875 L 24.332031 -126.71875 C 19.792969 -126.71875 16.464844 -125.671875 14.347656 -123.570312 C 12.21875 -121.453125 11.152344 -118.109375 11.152344 -113.542969 Z M 5.070312 -113.542969 C 5.070312 -119.800781 6.734375 -124.582031 10.0625 -127.886719 C 13.367188 -131.164062 18.121094 -132.804688 24.332031 -132.804688 L 137.871094 -132.804688 C 144.144531 -132.804688 148.925781 -131.160156 152.207031 -127.878906 C 155.492188 -124.59375 157.132812 -119.816406 157.132812 -113.542969 L 157.132812 3.042969 L 134.832031 3.042969 L 134.832031 -113.542969 L 137.871094 -113.542969 L 137.871094 -110.5 L 24.332031 -110.5 L 24.332031 -113.542969 L 27.371094 -113.542969 L 27.371094 3.042969 L 5.070312 3.042969 Z M 72.992188 -3.042969 L 89.210938 -3.042969 L 89.210938 0 L 86.171875 0 L 86.171875 -97.320312 L 89.210938 -97.320312 L 89.210938 -94.28125 L 72.992188 -94.28125 L 72.992188 -97.320312 L 76.03125 -97.320312 L 76.03125 0 L 72.992188 0 Z M 69.949219 3.042969 L 69.949219 -100.363281 L 92.253906 -100.363281 L 92.253906 3.042969 Z M 69.949219 3.042969 "/></g></g></g><g fill="#ffffff" fill-opacity="1"><g transform="translate(1105.333211, 413.656448)"><g><path d="M 5.070312 -132.804688 L 5.070312 3.042969 L 27.371094 3.042969 L 27.371094 -132.804688 Z M 11.152344 -126.71875 L 21.289062 -126.71875 L 21.289062 -3.042969 L 11.152344 -3.042969 Z M 11.152344 -126.71875 "/></g></g></g><g fill="#ffffff" fill-opacity="1"><g transform="translate(1137.773067, 413.656448)"><g><path d="M 56.769531 -94.28125 L 40.550781 -94.28125 L 40.550781 -97.320312 L 43.59375 -97.320312 L 43.59375 0 L 40.550781 0 L 40.550781 -3.042969 L 56.769531 -3.042969 L 56.769531 0 L 53.730469 0 L 53.730469 -97.320312 L 56.769531 -97.320312 Z M 59.8125 -100.363281 L 59.8125 3.042969 L 37.507812 3.042969 L 37.507812 -100.363281 Z M 8.109375 -116.582031 L 89.210938 -116.582031 L 89.210938 -113.542969 L 86.171875 -113.542969 L 86.171875 -129.761719 L 89.210938 -129.761719 L 89.210938 -126.71875 L 8.109375 -126.71875 L 8.109375 -129.761719 L 11.152344 -129.761719 L 11.152344 -113.542969 L 8.109375 -113.542969 Z M 5.070312 -110.5 L 5.070312 -132.804688 L 92.253906 -132.804688 L 92.253906 -110.5 Z M 5.070312 -110.5 "/></g></g></g><g fill="#ffffff" fill-opacity="1"><g transform="translate(1235.092634, 413.656448)"><g><path d="M 97.320312 -126.71875 L 8.109375 -126.71875 L 8.109375 -129.761719 L 11.152344 -129.761719 L 11.152344 -113.542969 L 8.109375 -113.542969 L 8.109375 -116.582031 L 97.320312 -116.582031 L 97.320312 -113.542969 L 94.28125 -113.542969 L 94.28125 -129.761719 L 97.320312 -129.761719 Z M 100.363281 -132.804688 L 100.363281 -110.5 L 5.070312 -110.5 L 5.070312 -132.804688 Z M 8.109375 -3.042969 L 97.320312 -3.042969 L 97.320312 0 L 94.28125 0 L 94.28125 -16.21875 L 97.320312 -16.21875 L 97.320312 -13.179688 L 8.109375 -13.179688 L 8.109375 -16.21875 L 11.152344 -16.21875 L 11.152344 0 L 8.109375 0 Z M 5.070312 3.042969 L 5.070312 -19.261719 L 100.363281 -19.261719 L 100.363281 3.042969 Z M 8.109375 -35.480469 L 81.101562 -35.480469 L 81.101562 -32.441406 L 78.058594 -32.441406 L 78.058594 -48.660156 L 81.101562 -48.660156 L 81.101562 -45.621094 L 8.109375 -45.621094 L 8.109375 -48.660156 L 11.152344 -48.660156 L 11.152344 -32.441406 L 8.109375 -32.441406 Z M 5.070312 -29.398438 L 5.070312 -51.703125 L 84.144531 -51.703125 L 84.144531 -29.398438 Z M 5.070312 -29.398438 "/></g></g></g></svg>